<?xml version="1.0" standalone="no"?>
<!DOCTYPE svg PUBLIC "-//W3C//DTD SVG 20010904//EN"
 "http://www.w3.org/TR/2001/REC-SVG-20010904/DTD/svg10.dtd">
<svg version="1.0" xmlns="http://www.w3.org/2000/svg"
 width="50.000000pt" height="50.000000pt" viewBox="0 0 50.000000 50.000000"
 preserveAspectRatio="xMidYMid meet">

<g transform="translate(0.000000,50.000000) scale(0.100000,-0.100000)"
fill="#000000" stroke="none">
<path d="M85 415 c-24 -23 -25 -29 -25 -165 0 -136 1 -142 25 -165 23 -24 29
-25 165 -25 136 0 142 1 165 25 24 23 25 29 25 165 0 136 -1 142 -25 165 -23
24 -29 25 -165 25 -136 0 -142 -1 -165 -25z m303 -27 c17 -17 17 -259 0 -276
-17 -17 -259 -17 -276 0 -17 17 -17 259 0 276 17 17 259 17 276 0z"/>
<path d="M228 353 c-62 -32 -58 -91 6 -114 19 -7 38 -19 40 -26 8 -20 -23 -28
-58 -15 -24 10 -33 9 -44 -2 -11 -11 -9 -16 13 -30 14 -9 23 -21 20 -27 -10
-15 27 -24 39 -8 6 8 25 21 41 29 25 13 30 22 30 50 0 31 -5 37 -42 55 -58 28
-57 49 2 43 56 -7 82 15 41 33 -14 7 -23 16 -20 20 8 14 -38 8 -68 -8z"/>
</g>
</svg>
