<?xml version="1.0" standalone="no"?>
<!DOCTYPE svg PUBLIC "-//W3C//DTD SVG 20010904//EN"
 "http://www.w3.org/TR/2001/REC-SVG-20010904/DTD/svg10.dtd">
<svg version="1.0" xmlns="http://www.w3.org/2000/svg"
 width="50.000000pt" height="50.000000pt" viewBox="0 0 50.000000 50.000000"
 preserveAspectRatio="xMidYMid meet">

<g transform="translate(0.000000,50.000000) scale(0.100000,-0.100000)"
fill="#000000" stroke="none">
<path d="M56 404 c-23 -23 -23 -285 0 -308 23 -24 365 -24 388 0 23 23 23 285
0 308 -23 24 -365 24 -388 0z m342 -40 c-3 -3 -38 -25 -77 -49 l-72 -44 -77
49 -77 50 154 0 c85 0 152 -3 149 -6z m-228 -85 l80 -51 80 51 c45 28 83 51
86 51 2 0 3 -46 2 -102 l-3 -103 -165 0 -165 0 -3 103 c-1 56 0 102 2 102 3 0
41 -23 86 -51z"/>
</g>
</svg>
