<?xml version="1.0" standalone="no"?>
<!DOCTYPE svg PUBLIC "-//W3C//DTD SVG 20010904//EN"
 "http://www.w3.org/TR/2001/REC-SVG-20010904/DTD/svg10.dtd">
<svg version="1.0" xmlns="http://www.w3.org/2000/svg"
 width="50.000000pt" height="50.000000pt" viewBox="0 0 50.000000 50.000000"
 preserveAspectRatio="xMidYMid meet">

<g transform="translate(0.000000,50.000000) scale(0.100000,-0.100000)"
fill="#000000" stroke="none">
<path d="M76 424 c-24 -23 -24 -325 0 -348 23 -24 325 -24 348 0 24 23 24 325
0 348 -23 24 -325 24 -348 0z m319 -174 l0 -145 -47 -3 -48 -3 0 45 c0 42 2
46 24 46 17 0 25 7 28 25 5 22 2 25 -23 25 -26 0 -29 4 -29 30 0 26 5 31 30
37 23 4 30 11 30 29 0 21 -5 24 -35 24 -49 0 -85 -36 -85 -85 0 -31 -3 -35
-25 -35 -20 0 -25 -5 -25 -25 0 -20 5 -25 25 -25 23 0 25 -4 25 -45 l0 -46
-67 3 -68 3 -3 134 c-1 74 0 141 2 148 4 11 37 13 148 11 l143 -3 0 -145z"/>
</g>
</svg>
