<?xml version="1.0" standalone="no"?>
<!DOCTYPE svg PUBLIC "-//W3C//DTD SVG 20010904//EN"
 "http://www.w3.org/TR/2001/REC-SVG-20010904/DTD/svg10.dtd">
<svg version="1.0" xmlns="http://www.w3.org/2000/svg"
 width="50.000000pt" height="50.000000pt" viewBox="0 0 50.000000 50.000000"
 preserveAspectRatio="xMidYMid meet">

<g transform="translate(0.000000,50.000000) scale(0.100000,-0.100000)"
fill="#000000" stroke="none">
<path d="M118 424 c-45 -24 -58 -62 -58 -169 0 -167 27 -195 190 -195 161 0
190 29 190 190 0 164 -27 190 -192 190 -71 -1 -111 -5 -130 -16z m259 -47 c15
-15 18 -35 18 -127 0 -145 0 -145 -145 -145 -141 0 -144 2 -148 128 -4 102 7
143 40 157 13 5 67 9 120 7 78 -2 101 -6 115 -20z"/>
<path d="M336 361 c-7 -11 18 -33 27 -24 4 3 7 12 7 20 0 15 -26 18 -34 4z"/>
<path d="M179 321 c-64 -65 -20 -171 71 -171 58 0 100 42 100 100 0 91 -106
135 -171 71z m113 -28 c22 -20 23 -61 1 -85 -34 -38 -103 -11 -103 40 0 54 62
81 102 45z"/>
</g>
</svg>
