<?xml version="1.0" standalone="no"?>
<!DOCTYPE svg PUBLIC "-//W3C//DTD SVG 20010904//EN"
 "http://www.w3.org/TR/2001/REC-SVG-20010904/DTD/svg10.dtd">
<svg version="1.0" xmlns="http://www.w3.org/2000/svg"
 width="50.000000pt" height="50.000000pt" viewBox="0 0 50.000000 50.000000"
 preserveAspectRatio="xMidYMid meet">

<g transform="translate(0.000000,50.000000) scale(0.100000,-0.100000)"
fill="#000000" stroke="none">
<path d="M56 444 c-24 -23 -24 -365 0 -388 23 -24 365 -24 388 0 24 23 24 365
0 388 -23 24 -365 24 -388 0z m302 -112 c4 -44 -13 -100 -48 -155 -29 -47 -30
-47 -85 -47 -30 0 -55 2 -55 5 0 3 -7 51 -15 107 -9 55 -14 102 -13 104 2 1
20 5 40 9 l36 7 7 -49 c3 -26 9 -61 12 -78 l6 -30 19 40 c10 22 17 55 15 73
-3 29 0 33 27 41 43 13 51 9 54 -27z"/>
</g>
</svg>
